<mxfile host="65bd71144e">
    <diagram id="bp5wDyK_Ronc3wvoQBy8" name="User Authentication">
        <mxGraphModel dx="2509" dy="1251" grid="0" gridSize="10" guides="1" tooltips="1" connect="1" arrows="1" fold="1" page="0" pageScale="1" pageWidth="850" pageHeight="1100" background="#000000" math="0" shadow="0">
            <root>
                <mxCell id="0"/>
                <mxCell id="1" parent="0"/>
                <mxCell id="15" value="" style="shape=umlLifeline;participant=umlActor;perimeter=lifelinePerimeter;whiteSpace=wrap;html=1;container=1;collapsible=0;recursiveResize=0;verticalAlign=top;spacingTop=36;outlineConnect=0;" parent="1" vertex="1">
                    <mxGeometry x="49" y="59" width="20" height="1052" as="geometry"/>
                </mxCell>
                <mxCell id="16" value="Interface" style="shape=umlLifeline;perimeter=lifelinePerimeter;whiteSpace=wrap;html=1;container=1;collapsible=0;recursiveResize=0;outlineConnect=0;" parent="1" vertex="1">
                    <mxGeometry x="247" y="62" width="100" height="1032" as="geometry"/>
                </mxCell>
                <mxCell id="103" value="" style="html=1;points=[];perimeter=orthogonalPerimeter;strokeWidth=3;fillColor=#000000;" vertex="1" parent="16">
                    <mxGeometry x="45" y="195.47" width="10" height="426.53" as="geometry"/>
                </mxCell>
                <mxCell id="186" value="" style="html=1;points=[];perimeter=orthogonalPerimeter;strokeWidth=3;fillColor=#000000;" vertex="1" parent="16">
                    <mxGeometry x="45" y="705" width="10" height="266" as="geometry"/>
                </mxCell>
                <mxCell id="17" value="Server" style="shape=umlLifeline;perimeter=lifelinePerimeter;whiteSpace=wrap;html=1;container=1;collapsible=0;recursiveResize=0;outlineConnect=0;" parent="1" vertex="1">
                    <mxGeometry x="650" y="57" width="100" height="1054" as="geometry"/>
                </mxCell>
                <mxCell id="197" value="" style="html=1;points=[];perimeter=orthogonalPerimeter;strokeWidth=3;fillColor=#000000;" vertex="1" parent="17">
                    <mxGeometry x="45" y="824" width="10" height="102" as="geometry"/>
                </mxCell>
                <mxCell id="Nqy91Xz0ySXgkuDjwQuP-206" value="" style="shape=umlLifeline;participant=umlActor;perimeter=lifelinePerimeter;whiteSpace=wrap;html=1;container=1;collapsible=0;recursiveResize=0;verticalAlign=top;spacingTop=36;outlineConnect=0;" vertex="1" parent="17">
                    <mxGeometry x="-600" y="2" width="20" height="1052" as="geometry"/>
                </mxCell>
                <mxCell id="Nqy91Xz0ySXgkuDjwQuP-207" value="Interface" style="shape=umlLifeline;perimeter=lifelinePerimeter;whiteSpace=wrap;html=1;container=1;collapsible=0;recursiveResize=0;outlineConnect=0;" vertex="1" parent="17">
                    <mxGeometry x="-402" y="5" width="100" height="1032" as="geometry"/>
                </mxCell>
                <mxCell id="Nqy91Xz0ySXgkuDjwQuP-208" value="" style="html=1;points=[];perimeter=orthogonalPerimeter;strokeWidth=3;fillColor=#000000;" vertex="1" parent="Nqy91Xz0ySXgkuDjwQuP-207">
                    <mxGeometry x="45" y="195.47" width="10" height="426.53" as="geometry"/>
                </mxCell>
                <mxCell id="Nqy91Xz0ySXgkuDjwQuP-209" value="" style="html=1;points=[];perimeter=orthogonalPerimeter;strokeWidth=3;fillColor=#000000;" vertex="1" parent="Nqy91Xz0ySXgkuDjwQuP-207">
                    <mxGeometry x="45" y="705" width="10" height="266" as="geometry"/>
                </mxCell>
                <mxCell id="Nqy91Xz0ySXgkuDjwQuP-210" value="Client" style="shape=umlLifeline;perimeter=lifelinePerimeter;whiteSpace=wrap;html=1;container=1;collapsible=0;recursiveResize=0;outlineConnect=0;" vertex="1" parent="17">
                    <mxGeometry x="-206" width="100" height="1037" as="geometry"/>
                </mxCell>
                <mxCell id="Nqy91Xz0ySXgkuDjwQuP-211" value="" style="html=1;points=[];perimeter=orthogonalPerimeter;strokeWidth=3;fillColor=#000000;" vertex="1" parent="Nqy91Xz0ySXgkuDjwQuP-210">
                    <mxGeometry x="45" y="768" width="10" height="189" as="geometry"/>
                </mxCell>
                <mxCell id="18" value="Database" style="shape=umlLifeline;perimeter=lifelinePerimeter;whiteSpace=wrap;html=1;container=1;collapsible=0;recursiveResize=0;outlineConnect=0;" parent="1" vertex="1">
                    <mxGeometry x="907" y="57" width="100" height="1018" as="geometry"/>
                </mxCell>
                <mxCell id="180" value="" style="html=1;points=[];perimeter=orthogonalPerimeter;strokeWidth=3;fillColor=#000000;" vertex="1" parent="18">
                    <mxGeometry x="44.5" y="424" width="10" height="149" as="geometry"/>
                </mxCell>
                <mxCell id="202" value="" style="html=1;points=[];perimeter=orthogonalPerimeter;strokeWidth=3;fillColor=#000000;" vertex="1" parent="18">
                    <mxGeometry x="45" y="823" width="10" height="84" as="geometry"/>
                </mxCell>
                <mxCell id="28" value="Client" style="shape=umlLifeline;perimeter=lifelinePerimeter;whiteSpace=wrap;html=1;container=1;collapsible=0;recursiveResize=0;outlineConnect=0;" vertex="1" parent="1">
                    <mxGeometry x="443" y="57" width="100" height="1037" as="geometry"/>
                </mxCell>
                <mxCell id="193" value="" style="html=1;points=[];perimeter=orthogonalPerimeter;strokeWidth=3;fillColor=#000000;" vertex="1" parent="28">
                    <mxGeometry x="45" y="768" width="10" height="189" as="geometry"/>
                </mxCell>
                <mxCell id="34" value="Verify Format()" style="html=1;verticalAlign=bottom;endArrow=block;" edge="1" parent="1" source="103" target="107">
                    <mxGeometry width="80" relative="1" as="geometry">
                        <mxPoint x="296.5" y="338" as="sourcePoint"/>
                        <mxPoint x="492.5" y="338" as="targetPoint"/>
                        <Array as="points">
                            <mxPoint x="397" y="338"/>
                        </Array>
                    </mxGeometry>
                </mxCell>
                <mxCell id="58" value="User Access Denied" style="html=1;verticalAlign=bottom;endArrow=open;dashed=1;endSize=8;" edge="1" parent="1">
                    <mxGeometry relative="1" as="geometry">
                        <mxPoint x="695" y="546.9999999999999" as="sourcePoint"/>
                        <mxPoint x="498" y="546.9999999999999" as="targetPoint"/>
                        <Array as="points">
                            <mxPoint x="594" y="547"/>
                        </Array>
                    </mxGeometry>
                </mxCell>
                <mxCell id="66" value="Re-enter User Email, Password&lt;br&gt;Or Create New User()&lt;br&gt;Show Error Code()" style="html=1;verticalAlign=bottom;endArrow=open;dashed=1;endSize=8;" edge="1" parent="1" source="103" target="15">
                    <mxGeometry relative="1" as="geometry">
                        <mxPoint x="254" y="427" as="sourcePoint"/>
                        <mxPoint x="62" y="460" as="targetPoint"/>
                        <Array as="points">
                            <mxPoint x="202" y="425"/>
                        </Array>
                    </mxGeometry>
                </mxCell>
                <mxCell id="76" value="Re-enter User Email, Password&lt;br&gt;Or Create New User()&lt;br&gt;Show Error Code()" style="html=1;verticalAlign=bottom;endArrow=open;dashed=1;endSize=8;" edge="1" parent="1">
                    <mxGeometry relative="1" as="geometry">
                        <mxPoint x="296.5" y="579" as="sourcePoint"/>
                        <mxPoint x="58.666666666666515" y="579" as="targetPoint"/>
                        <Array as="points">
                            <mxPoint x="177.32999999999998" y="579"/>
                        </Array>
                    </mxGeometry>
                </mxCell>
                <mxCell id="89" value="Access OK" style="html=1;verticalAlign=bottom;endArrow=block;strokeWidth=1;dashed=1;" edge="1" parent="1" source="110" target="107">
                    <mxGeometry width="80" relative="1" as="geometry">
                        <mxPoint x="699.5" y="644.9999999999998" as="sourcePoint"/>
                        <mxPoint x="492.32352941176487" y="644.9999999999998" as="targetPoint"/>
                        <Array as="points">
                            <mxPoint x="581" y="645"/>
                        </Array>
                    </mxGeometry>
                </mxCell>
                <mxCell id="90" value="Inform Client To show the Menu()" style="html=1;verticalAlign=bottom;endArrow=block;strokeWidth=1;dashed=1;" edge="1" parent="1" source="107" target="103">
                    <mxGeometry width="80" relative="1" as="geometry">
                        <mxPoint x="492.49999999999955" y="663.0662251655629" as="sourcePoint"/>
                        <mxPoint x="296.32352941176487" y="663.0662251655629" as="targetPoint"/>
                        <Array as="points">
                            <mxPoint x="388" y="658"/>
                        </Array>
                    </mxGeometry>
                </mxCell>
                <mxCell id="99" value="" style="html=1;points=[];perimeter=orthogonalPerimeter;strokeWidth=3;fillColor=#000000;" vertex="1" parent="1">
                    <mxGeometry x="292" y="127" width="10" height="80" as="geometry"/>
                </mxCell>
                <mxCell id="100" value="Request To Use()" style="html=1;verticalAlign=bottom;endArrow=block;entryX=0;entryY=0;strokeWidth=1;" edge="1" target="99" parent="1" source="15">
                    <mxGeometry relative="1" as="geometry">
                        <mxPoint x="-144" y="119" as="sourcePoint"/>
                    </mxGeometry>
                </mxCell>
                <mxCell id="101" value="Show LogIn Form()" style="html=1;verticalAlign=bottom;endArrow=open;dashed=1;endSize=8;exitX=0;exitY=0.95;strokeWidth=1;" edge="1" source="99" parent="1" target="15">
                    <mxGeometry relative="1" as="geometry">
                        <mxPoint x="-144" y="195" as="targetPoint"/>
                    </mxGeometry>
                </mxCell>
                <mxCell id="104" value="Enter User Email()" style="html=1;verticalAlign=bottom;endArrow=block;entryX=0;entryY=0;strokeWidth=1;" edge="1" target="103" parent="1" source="15">
                    <mxGeometry relative="1" as="geometry">
                        <mxPoint x="-150" y="331" as="sourcePoint"/>
                    </mxGeometry>
                </mxCell>
                <mxCell id="56" value="Enter User Password()" style="html=1;verticalAlign=bottom;endArrow=block;entryX=0;entryY=0.857;entryDx=0;entryDy=0;entryPerimeter=0;" edge="1" parent="1">
                    <mxGeometry width="80" relative="1" as="geometry">
                        <mxPoint x="58.5" y="284.03" as="sourcePoint"/>
                        <mxPoint x="292" y="284.03" as="targetPoint"/>
                    </mxGeometry>
                </mxCell>
                <mxCell id="109" value="Format Invalid" style="html=1;verticalAlign=bottom;endArrow=open;dashed=1;endSize=8;strokeWidth=1;entryX=0.92;entryY=0.347;entryDx=0;entryDy=0;entryPerimeter=0;" edge="1" parent="1">
                    <mxGeometry relative="1" as="geometry">
                        <mxPoint x="488" y="392.78791" as="sourcePoint"/>
                        <mxPoint x="301.2000000000003" y="392.78791" as="targetPoint"/>
                    </mxGeometry>
                </mxCell>
                <mxCell id="111" style="edgeStyle=none;html=1;strokeWidth=1;" edge="1" parent="1" source="107" target="28">
                    <mxGeometry relative="1" as="geometry"/>
                </mxCell>
                <mxCell id="107" value="" style="html=1;points=[];perimeter=orthogonalPerimeter;strokeWidth=3;fillColor=#000000;" vertex="1" parent="1">
                    <mxGeometry x="488" y="324.99754966887417" width="10" height="346" as="geometry"/>
                </mxCell>
                <mxCell id="110" value="" style="html=1;points=[];perimeter=orthogonalPerimeter;strokeWidth=3;fillColor=#000000;" vertex="1" parent="1">
                    <mxGeometry x="695" y="440.99754966887417" width="10" height="215" as="geometry"/>
                </mxCell>
                <mxCell id="55" value="Verify User Authentication()" style="html=1;verticalAlign=bottom;endArrow=block;" edge="1" parent="1" source="107" target="110">
                    <mxGeometry width="80" relative="1" as="geometry">
                        <mxPoint x="500" y="466" as="sourcePoint"/>
                        <mxPoint x="699.5" y="466" as="targetPoint"/>
                        <Array as="points">
                            <mxPoint x="593" y="465"/>
                        </Array>
                    </mxGeometry>
                </mxCell>
                <mxCell id="75" value="User Does Not Exist" style="html=1;verticalAlign=bottom;endArrow=open;dashed=1;endSize=8;strokeWidth=1;" edge="1" parent="1">
                    <mxGeometry relative="1" as="geometry">
                        <mxPoint x="488" y="556" as="sourcePoint"/>
                        <mxPoint x="302" y="556" as="targetPoint"/>
                        <Array as="points">
                            <mxPoint x="396" y="556"/>
                        </Array>
                    </mxGeometry>
                </mxCell>
                <mxCell id="122" value="" style="group" vertex="1" connectable="0" parent="1">
                    <mxGeometry x="-78" y="520" width="1084" height="68" as="geometry"/>
                </mxCell>
                <mxCell id="83" value="If Invalid Authentication" style="shape=umlFrame;whiteSpace=wrap;html=1;fillColor=#231f29;" vertex="1" parent="122">
                    <mxGeometry width="1084" height="68" as="geometry"/>
                </mxCell>
                <mxCell id="128" value="" style="group" vertex="1" connectable="0" parent="1">
                    <mxGeometry x="-36" y="361.99754966887417" width="554" height="76" as="geometry"/>
                </mxCell>
                <mxCell id="70" value="If Invalid Format" style="shape=umlFrame;whiteSpace=wrap;html=1;fillColor=#231f29;" vertex="1" parent="128">
                    <mxGeometry x="0.0020913473335319194" width="553.9979086526664" height="76" as="geometry"/>
                </mxCell>
                <mxCell id="131" value="Show The Menu()" style="html=1;verticalAlign=bottom;endArrow=open;dashed=1;endSize=8;strokeWidth=1;" edge="1" parent="1">
                    <mxGeometry relative="1" as="geometry">
                        <mxPoint x="292" y="672.7350000000001" as="sourcePoint"/>
                        <mxPoint x="58.5" y="672.7350000000001" as="targetPoint"/>
                    </mxGeometry>
                </mxCell>
                <mxCell id="177" value="Check User Info()" style="html=1;verticalAlign=bottom;endArrow=block;strokeWidth=1;" edge="1" parent="1" target="180">
                    <mxGeometry width="80" relative="1" as="geometry">
                        <mxPoint x="705" y="482.49754966887417" as="sourcePoint"/>
                        <mxPoint x="956.5000000000005" y="482.49754966887417" as="targetPoint"/>
                    </mxGeometry>
                </mxCell>
                <mxCell id="181" value="Invalid Info" style="html=1;verticalAlign=bottom;endArrow=open;dashed=1;endSize=8;strokeWidth=1;" edge="1" parent="1">
                    <mxGeometry relative="1" as="geometry">
                        <mxPoint x="951.5000000000005" y="537" as="sourcePoint"/>
                        <mxPoint x="705" y="537" as="targetPoint"/>
                    </mxGeometry>
                </mxCell>
                <mxCell id="182" value="User Info OK" style="html=1;verticalAlign=bottom;endArrow=open;dashed=1;endSize=8;strokeWidth=1;" edge="1" parent="1">
                    <mxGeometry relative="1" as="geometry">
                        <mxPoint x="951.5000000000005" y="628.5" as="sourcePoint"/>
                        <mxPoint x="699.0714285714284" y="628.5" as="targetPoint"/>
                    </mxGeometry>
                </mxCell>
                <mxCell id="187" value="Enter New User Info()" style="html=1;verticalAlign=bottom;endArrow=block;entryX=0;entryY=0;strokeWidth=1;" edge="1" target="186" parent="1" source="15">
                    <mxGeometry relative="1" as="geometry">
                        <mxPoint x="60.00142857142844" y="808" as="sourcePoint"/>
                        <mxPoint as="offset"/>
                    </mxGeometry>
                </mxCell>
                <mxCell id="188" value="Show the LogIn Form()" style="html=1;verticalAlign=bottom;endArrow=open;dashed=1;endSize=8;strokeWidth=1;" edge="1" parent="1">
                    <mxGeometry relative="1" as="geometry">
                        <mxPoint x="59.00142857142844" y="1028" as="targetPoint"/>
                        <mxPoint x="295.5" y="1028" as="sourcePoint"/>
                    </mxGeometry>
                </mxCell>
                <mxCell id="194" value="Verify Format()" style="html=1;verticalAlign=bottom;endArrow=block;entryX=0;entryY=0;strokeWidth=1;" edge="1" target="193" parent="1" source="16">
                    <mxGeometry relative="1" as="geometry">
                        <mxPoint x="418" y="825" as="sourcePoint"/>
                    </mxGeometry>
                </mxCell>
                <mxCell id="195" value="Invalid Format" style="html=1;verticalAlign=bottom;endArrow=open;dashed=1;endSize=8;exitX=0;exitY=0.95;strokeWidth=1;" edge="1" parent="1">
                    <mxGeometry relative="1" as="geometry">
                        <mxPoint x="296.5" y="863.8499999999997" as="targetPoint"/>
                        <mxPoint x="488" y="863.8499999999997" as="sourcePoint"/>
                    </mxGeometry>
                </mxCell>
                <mxCell id="198" value="Send Request Make New User()" style="html=1;verticalAlign=bottom;endArrow=block;entryX=0;entryY=0;strokeWidth=1;" edge="1" parent="1">
                    <mxGeometry relative="1" as="geometry">
                        <mxPoint x="492.5" y="909" as="sourcePoint"/>
                        <mxPoint x="695" y="909" as="targetPoint"/>
                    </mxGeometry>
                </mxCell>
                <mxCell id="199" value="Create OK" style="html=1;verticalAlign=bottom;endArrow=open;dashed=1;endSize=8;exitX=0;exitY=0.95;strokeWidth=1;" edge="1" parent="1">
                    <mxGeometry relative="1" as="geometry">
                        <mxPoint x="492.5" y="978.25" as="targetPoint"/>
                        <mxPoint x="695" y="978.25" as="sourcePoint"/>
                    </mxGeometry>
                </mxCell>
                <mxCell id="203" value="Update the Database()" style="html=1;verticalAlign=bottom;endArrow=block;entryX=0;entryY=0;strokeWidth=1;" edge="1" parent="1">
                    <mxGeometry relative="1" as="geometry">
                        <mxPoint x="699.5" y="916" as="sourcePoint"/>
                        <mxPoint x="952" y="916" as="targetPoint"/>
                    </mxGeometry>
                </mxCell>
                <mxCell id="204" value="Create OK" style="html=1;verticalAlign=bottom;endArrow=open;dashed=1;endSize=8;exitX=0;exitY=0.95;strokeWidth=1;" edge="1" parent="1">
                    <mxGeometry relative="1" as="geometry">
                        <mxPoint x="699.5" y="963.25" as="targetPoint"/>
                        <mxPoint x="952" y="963.25" as="sourcePoint"/>
                    </mxGeometry>
                </mxCell>
                <mxCell id="205" value="Inform Client To Re-enter the Email, Password()" style="html=1;verticalAlign=bottom;endArrow=open;dashed=1;endSize=8;strokeWidth=1;" edge="1" parent="1">
                    <mxGeometry relative="1" as="geometry">
                        <mxPoint x="302" y="1000" as="targetPoint"/>
                        <mxPoint x="492.5" y="1000" as="sourcePoint"/>
                    </mxGeometry>
                </mxCell>
                <mxCell id="206" value="Invalid Format" style="shape=umlFrame;whiteSpace=wrap;html=1;strokeWidth=1;fillColor=#000000;" vertex="1" parent="1">
                    <mxGeometry x="-73" y="792" width="601" height="83" as="geometry"/>
                </mxCell>
                <mxCell id="veSM95ObO2nGEjo0KRnq-206" value="" style="line;strokeWidth=5;fillColor=none;align=left;verticalAlign=middle;spacingTop=-1;spacingLeft=3;spacingRight=3;rotatable=0;labelPosition=right;points=[];portConstraint=eastwest;strokeColor=inherit;" vertex="1" parent="1">
                    <mxGeometry x="-465" y="714" width="1441" height="8" as="geometry"/>
                </mxCell>
                <mxCell id="veSM95ObO2nGEjo0KRnq-207" value="&lt;h1&gt;User Log In&lt;/h1&gt;&lt;div&gt;Where User will log in&amp;nbsp;&lt;/div&gt;" style="text;html=1;strokeColor=default;fillColor=none;spacing=5;spacingTop=-20;whiteSpace=wrap;overflow=hidden;rounded=0;strokeWidth=5;" vertex="1" parent="1">
                    <mxGeometry x="-351" y="127" width="190" height="120" as="geometry"/>
                </mxCell>
                <mxCell id="veSM95ObO2nGEjo0KRnq-208" value="&lt;h1&gt;Register New User&lt;/h1&gt;&lt;div&gt;Where User will Create New User&lt;/div&gt;" style="text;html=1;strokeColor=default;fillColor=none;spacing=5;spacingTop=-20;whiteSpace=wrap;overflow=hidden;rounded=0;strokeWidth=5;" vertex="1" parent="1">
                    <mxGeometry x="-441" y="762" width="231" height="120" as="geometry"/>
                </mxCell>
            </root>
        </mxGraphModel>
    </diagram>
    <diagram id="ogrocr_kE_rStBuGyaMS" name="Page-2">
        <mxGraphModel dx="769" dy="563" grid="0" gridSize="10" guides="1" tooltips="1" connect="1" arrows="1" fold="1" page="0" pageScale="1" pageWidth="850" pageHeight="1100" math="0" shadow="0">
            <root>
                <mxCell id="0"/>
                <mxCell id="1" parent="0"/>
                <mxCell id="bBO8f158lhWeQdIc57SH-1" value="Server" style="shape=umlLifeline;perimeter=lifelinePerimeter;whiteSpace=wrap;html=1;container=1;collapsible=0;recursiveResize=0;outlineConnect=0;" vertex="1" parent="1">
                    <mxGeometry x="650" y="57" width="100" height="1054" as="geometry"/>
                </mxCell>
                <mxCell id="bBO8f158lhWeQdIc57SH-3" value="" style="shape=umlLifeline;participant=umlActor;perimeter=lifelinePerimeter;whiteSpace=wrap;html=1;container=1;collapsible=0;recursiveResize=0;verticalAlign=top;spacingTop=36;outlineConnect=0;" vertex="1" parent="bBO8f158lhWeQdIc57SH-1">
                    <mxGeometry x="-600" y="2" width="20" height="1052" as="geometry"/>
                </mxCell>
                <mxCell id="bBO8f158lhWeQdIc57SH-4" value="Interface" style="shape=umlLifeline;perimeter=lifelinePerimeter;whiteSpace=wrap;html=1;container=1;collapsible=0;recursiveResize=0;outlineConnect=0;" vertex="1" parent="bBO8f158lhWeQdIc57SH-1">
                    <mxGeometry x="-402" y="5" width="100" height="1032" as="geometry"/>
                </mxCell>
                <mxCell id="bBO8f158lhWeQdIc57SH-12" value="" style="html=1;points=[];perimeter=orthogonalPerimeter;strokeWidth=1;fillColor=#000000;" vertex="1" parent="bBO8f158lhWeQdIc57SH-4">
                    <mxGeometry x="45" y="111" width="10" height="80" as="geometry"/>
                </mxCell>
                <mxCell id="bBO8f158lhWeQdIc57SH-7" value="Client" style="shape=umlLifeline;perimeter=lifelinePerimeter;whiteSpace=wrap;html=1;container=1;collapsible=0;recursiveResize=0;outlineConnect=0;" vertex="1" parent="bBO8f158lhWeQdIc57SH-1">
                    <mxGeometry x="-206" width="100" height="1037" as="geometry"/>
                </mxCell>
                <mxCell id="bBO8f158lhWeQdIc57SH-13" value="dispatch" style="html=1;verticalAlign=bottom;endArrow=block;entryX=0;entryY=0;strokeWidth=1;" edge="1" target="bBO8f158lhWeQdIc57SH-12" parent="bBO8f158lhWeQdIc57SH-1" source="bBO8f158lhWeQdIc57SH-3">
                    <mxGeometry relative="1" as="geometry">
                        <mxPoint x="-427" y="116" as="sourcePoint"/>
                    </mxGeometry>
                </mxCell>
                <mxCell id="bBO8f158lhWeQdIc57SH-14" value="return" style="html=1;verticalAlign=bottom;endArrow=open;dashed=1;endSize=8;exitX=0;exitY=0.95;strokeWidth=1;" edge="1" source="bBO8f158lhWeQdIc57SH-12" parent="bBO8f158lhWeQdIc57SH-1" target="bBO8f158lhWeQdIc57SH-3">
                    <mxGeometry relative="1" as="geometry">
                        <mxPoint x="-427" y="192" as="targetPoint"/>
                    </mxGeometry>
                </mxCell>
                <mxCell id="bBO8f158lhWeQdIc57SH-9" value="Database" style="shape=umlLifeline;perimeter=lifelinePerimeter;whiteSpace=wrap;html=1;container=1;collapsible=0;recursiveResize=0;outlineConnect=0;" vertex="1" parent="1">
                    <mxGeometry x="907" y="57" width="100" height="1018" as="geometry"/>
                </mxCell>
            </root>
        </mxGraphModel>
    </diagram>
</mxfile>